<?xml version="1.0" encoding="UTF-8" standalone="no"?>
<!DOCTYPE svg PUBLIC "-//W3C//DTD SVG 1.1//EN"
"http://www.w3.org/Graphics/SVG/1.1/DTD/svg11.dtd">


<!-- Page 1 -->
<svg x="0" y="0" width="1210" height="660" viewBox="0 0 1210 660" version="1.1" xmlns="http://www.w3.org/2000/svg" xmlns:xlink="http://www.w3.org/1999/xlink"
style="display: block;margin-left: auto;margin-right: auto;">
<defs>
<clipPath id="c0_1"><path d="M151.5,594.5l0,-529l937,0l0,529Z" /></clipPath>

<style type="text/css"><![CDATA[

.g5_1{
stroke: #000000;
stroke-width: 1;
stroke-linecap: butt;
stroke-linejoin: round;
}
.g4_1{
fill: none;
stroke: #000000;
stroke-width: 2;
stroke-linecap: square;
stroke-linejoin: miter;
}
.g2_1{
fill: #008000;
stroke: #000000;
stroke-width: 1;
stroke-linecap: butt;
stroke-linejoin: round;
}
.g3_1{
fill: none;
stroke: #FF0000;
stroke-width: 4;
stroke-linecap: square;
stroke-linejoin: round;
}
.g6_1{
fill: none;
stroke: #000000;
stroke-width: 1;
stroke-linecap: butt;
stroke-linejoin: round;
}
.g1_1{
fill: #FFFFFF;
}

.s1_1{
font-size: 18.33px;
font-family: BitstreamVeraSans-Roman;
fill: #000000;
}

]]></style>

</defs>
<path d="M0,0
L0,660
L1210,660
L1210,0 Z " 
fill="#FFFFFF" stroke="none" />
<path d="M0,660l1210,0L1210,0L0,0Z" class="g1_1" />
<path d="M151,594l937,0l0,-528L151,66Z" class="g1_1" />
<g clip-path="url(#c0_1)">
<path d="M151.3,93.3c1.2,0,2.3,-0.5,3.2,-1.3c0.9,-0.9,1.3,-2,1.3,-3.3c0,-1.2,-0.4,-2.3,-1.3,-3.2c-0.9,-0.9,-2,-1.3,-3.2,-1.3c-1.3,0,-2.4,0.4,-3.3,1.3c-0.9,0.9,-1.3,2,-1.3,3.2c0,1.3,0.4,2.4,1.3,3.3c0.9,0.8,2,1.3,3.3,1.3Z" class="g2_1" />
</g>
<path d="M160.6,93.3c1.2,0,2.4,-0.5,3.3,-1.3c0.8,-0.9,1.3,-2,1.3,-3.3c0,-1.2,-0.5,-2.3,-1.3,-3.2c-0.9,-0.9,-2.1,-1.3,-3.3,-1.3c-1.2,0,-2.4,0.4,-3.2,1.3c-0.9,0.9,-1.4,2,-1.4,3.2c0,1.3,0.5,2.4,1.4,3.3c0.8,0.8,2,1.3,3.2,1.3Z" class="g2_1" />
<path d="M170,93.3c1.2,0,2.4,-0.5,3.2,-1.3c0.9,-0.9,1.4,-2,1.4,-3.3c0,-1.2,-0.5,-2.3,-1.4,-3.2c-0.8,-0.9,-2,-1.3,-3.2,-1.3c-1.2,0,-2.4,0.4,-3.2,1.3c-0.9,0.9,-1.4,2,-1.4,3.2c0,1.3,0.5,2.4,1.4,3.3c0.8,0.8,2,1.3,3.2,1.3Z" class="g2_1" />
<path d="M179.4,93.3c1.2,0,2.4,-0.5,3.2,-1.3c0.9,-0.9,1.4,-2,1.4,-3.3c0,-1.2,-0.5,-2.3,-1.4,-3.2c-0.8,-0.9,-2,-1.3,-3.2,-1.3c-1.2,0,-2.4,0.4,-3.3,1.3c-0.8,0.9,-1.3,2,-1.3,3.2c0,1.3,0.5,2.4,1.3,3.3c0.9,0.8,2.1,1.3,3.3,1.3Z" class="g2_1" />
<path d="M188.8,580.7c1.2,0,2.3,-0.5,3.2,-1.3c0.9,-0.9,1.3,-2.1,1.3,-3.3c0,-1.2,-0.4,-2.4,-1.3,-3.2c-0.9,-0.9,-2,-1.4,-3.2,-1.4c-1.3,0,-2.4,0.5,-3.3,1.4c-0.8,0.8,-1.3,2,-1.3,3.2c0,1.2,0.5,2.4,1.3,3.3c0.9,0.8,2,1.3,3.3,1.3Z" class="g2_1" />
<path d="M198.1,580.7c1.3,0,2.4,-0.5,3.3,-1.3c0.8,-0.9,1.3,-2.1,1.3,-3.3c0,-1.2,-0.5,-2.4,-1.3,-3.2c-0.9,-0.9,-2,-1.4,-3.3,-1.4c-1.2,0,-2.3,0.5,-3.2,1.4c-0.9,0.8,-1.3,2,-1.3,3.2c0,1.2,0.4,2.4,1.3,3.3c0.9,0.8,2,1.3,3.2,1.3Z" class="g2_1" />
<path d="M207.5,580.7c1.2,0,2.4,-0.5,3.3,-1.3c0.8,-0.9,1.3,-2.1,1.3,-3.3c0,-1.2,-0.5,-2.4,-1.3,-3.2c-0.9,-0.9,-2.1,-1.4,-3.3,-1.4c-1.2,0,-2.4,0.5,-3.2,1.4c-0.9,0.8,-1.4,2,-1.4,3.2c0,1.2,0.5,2.4,1.4,3.3c0.8,0.8,2,1.3,3.2,1.3Z" class="g2_1" />
<path d="M216.9,580.7c1.2,0,2.4,-0.5,3.2,-1.3c0.9,-0.9,1.4,-2.1,1.4,-3.3c0,-1.2,-0.5,-2.4,-1.4,-3.2c-0.8,-0.9,-2,-1.4,-3.2,-1.4c-1.2,0,-2.4,0.5,-3.2,1.4c-0.9,0.8,-1.4,2,-1.4,3.2c0,1.2,0.5,2.4,1.4,3.3c0.8,0.8,2,1.3,3.2,1.3Z" class="g2_1" />
<path d="M226.3,580.7c1.2,0,2.4,-0.5,3.2,-1.3c0.9,-0.9,1.4,-2.1,1.4,-3.3c0,-1.2,-0.5,-2.4,-1.4,-3.2c-0.8,-0.9,-2,-1.4,-3.2,-1.4c-1.2,0,-2.4,0.5,-3.3,1.4c-0.8,0.8,-1.3,2,-1.3,3.2c0,1.2,0.5,2.4,1.3,3.3c0.9,0.8,2.1,1.3,3.3,1.3Z" class="g2_1" />
<path d="M235.6,93.3c1.3,0,2.4,-0.5,3.3,-1.3c0.8,-0.9,1.3,-2,1.3,-3.3c0,-1.2,-0.5,-2.3,-1.3,-3.2c-0.9,-0.9,-2,-1.3,-3.3,-1.3c-1.2,0,-2.3,0.4,-3.2,1.3c-0.9,0.9,-1.3,2,-1.3,3.2c0,1.3,0.4,2.4,1.3,3.3c0.9,0.8,2,1.3,3.2,1.3Z" class="g2_1" />
<path d="M245,93.3c1.2,0,2.4,-0.5,3.3,-1.3c0.8,-0.9,1.3,-2,1.3,-3.3c0,-1.2,-0.5,-2.3,-1.3,-3.2c-0.9,-0.9,-2.1,-1.3,-3.3,-1.3c-1.2,0,-2.4,0.4,-3.2,1.3c-0.9,0.9,-1.4,2,-1.4,3.2c0,1.3,0.5,2.4,1.4,3.3c0.8,0.8,2,1.3,3.2,1.3Z" class="g2_1" />
<path d="M254.4,93.3c1.2,0,2.4,-0.5,3.2,-1.3c0.9,-0.9,1.4,-2,1.4,-3.3c0,-1.2,-0.5,-2.3,-1.4,-3.2c-0.8,-0.9,-2,-1.3,-3.2,-1.3c-1.2,0,-2.4,0.4,-3.2,1.3c-0.9,0.9,-1.4,2,-1.4,3.2c0,1.3,0.5,2.4,1.4,3.3c0.8,0.8,2,1.3,3.2,1.3Z" class="g2_1" />
<path d="M263.8,93.3c1.2,0,2.4,-0.5,3.2,-1.3c0.9,-0.9,1.4,-2,1.4,-3.3c0,-1.2,-0.5,-2.3,-1.4,-3.2c-0.8,-0.9,-2,-1.3,-3.2,-1.3c-1.2,0,-2.4,0.4,-3.3,1.3c-0.8,0.9,-1.3,2,-1.3,3.2c0,1.3,0.5,2.4,1.3,3.3c0.9,0.8,2.1,1.3,3.3,1.3Z" class="g2_1" />
<path d="M273.2,580.7c1.2,0,2.3,-0.5,3.2,-1.3c0.9,-0.9,1.3,-2.1,1.3,-3.3c0,-1.2,-0.4,-2.4,-1.3,-3.2c-0.9,-0.9,-2,-1.4,-3.2,-1.4c-1.3,0,-2.4,0.5,-3.3,1.4c-0.8,0.8,-1.3,2,-1.3,3.2c0,1.2,0.5,2.4,1.3,3.3c0.9,0.8,2,1.3,3.3,1.3Z" class="g2_1" />
<path d="M282.5,580.7c1.3,0,2.4,-0.5,3.3,-1.3c0.8,-0.9,1.3,-2.1,1.3,-3.3c0,-1.2,-0.5,-2.4,-1.3,-3.2c-0.9,-0.9,-2,-1.4,-3.3,-1.4c-1.2,0,-2.3,0.5,-3.2,1.4c-0.9,0.8,-1.3,2,-1.3,3.2c0,1.2,0.4,2.4,1.3,3.3c0.9,0.8,2,1.3,3.2,1.3Z" class="g2_1" />
<path d="M291.9,93.3c1.2,0,2.4,-0.5,3.3,-1.3c0.8,-0.9,1.3,-2,1.3,-3.3c0,-1.2,-0.5,-2.3,-1.3,-3.2c-0.9,-0.9,-2.1,-1.3,-3.3,-1.3c-1.2,0,-2.4,0.4,-3.2,1.3c-0.9,0.9,-1.4,2,-1.4,3.2c0,1.3,0.5,2.4,1.4,3.3c0.8,0.8,2,1.3,3.2,1.3Z" class="g2_1" />
<path d="M301.3,93.3c1.2,0,2.4,-0.5,3.2,-1.3c0.9,-0.9,1.4,-2,1.4,-3.3c0,-1.2,-0.5,-2.3,-1.4,-3.2c-0.8,-0.9,-2,-1.3,-3.2,-1.3c-1.2,0,-2.4,0.4,-3.3,1.3c-0.8,0.9,-1.3,2,-1.3,3.2c0,1.3,0.5,2.4,1.3,3.3c0.9,0.8,2.1,1.3,3.3,1.3Z" class="g2_1" />
<path d="M310.7,93.3c1.2,0,2.3,-0.5,3.2,-1.3c0.9,-0.9,1.4,-2,1.4,-3.3c0,-1.2,-0.5,-2.3,-1.4,-3.2c-0.9,-0.9,-2,-1.3,-3.2,-1.3c-1.2,0,-2.4,0.4,-3.3,1.3c-0.8,0.9,-1.3,2,-1.3,3.2c0,1.3,0.5,2.4,1.3,3.3c0.9,0.8,2.1,1.3,3.3,1.3Z" class="g2_1" />
<path d="M320,93.3c1.3,0,2.4,-0.5,3.3,-1.3c0.8,-0.9,1.3,-2,1.3,-3.3c0,-1.2,-0.5,-2.3,-1.3,-3.2c-0.9,-0.9,-2,-1.3,-3.3,-1.3c-1.2,0,-2.3,0.4,-3.2,1.3c-0.9,0.9,-1.3,2,-1.3,3.2c0,1.3,0.4,2.4,1.3,3.3c0.9,0.8,2,1.3,3.2,1.3Z" class="g2_1" />
<path d="M329.4,580.7c1.2,0,2.4,-0.5,3.3,-1.3c0.8,-0.9,1.3,-2.1,1.3,-3.3c0,-1.2,-0.5,-2.4,-1.3,-3.2c-0.9,-0.9,-2.1,-1.4,-3.3,-1.4c-1.2,0,-2.4,0.5,-3.2,1.4c-0.9,0.8,-1.4,2,-1.4,3.2c0,1.2,0.5,2.4,1.4,3.3c0.8,0.8,2,1.3,3.2,1.3Z" class="g2_1" />
<path d="M338.8,580.7c1.2,0,2.4,-0.5,3.2,-1.3c0.9,-0.9,1.4,-2.1,1.4,-3.3c0,-1.2,-0.5,-2.4,-1.4,-3.2c-0.8,-0.9,-2,-1.4,-3.2,-1.4c-1.2,0,-2.4,0.5,-3.2,1.4c-0.9,0.8,-1.4,2,-1.4,3.2c0,1.2,0.5,2.4,1.4,3.3c0.8,0.8,2,1.3,3.2,1.3Z" class="g2_1" />
<path d="M348.2,580.7c1.2,0,2.4,-0.5,3.2,-1.3c0.9,-0.9,1.4,-2.1,1.4,-3.3c0,-1.2,-0.5,-2.4,-1.4,-3.2c-0.8,-0.9,-2,-1.4,-3.2,-1.4c-1.2,0,-2.4,0.5,-3.3,1.4c-0.8,0.8,-1.3,2,-1.3,3.2c0,1.2,0.5,2.4,1.3,3.3c0.9,0.8,2.1,1.3,3.3,1.3Z" class="g2_1" />
<path d="M357.6,93.3c1.2,0,2.3,-0.5,3.2,-1.3c0.9,-0.9,1.3,-2,1.3,-3.3c0,-1.2,-0.4,-2.3,-1.3,-3.2c-0.9,-0.9,-2,-1.3,-3.2,-1.3c-1.3,0,-2.4,0.4,-3.3,1.3c-0.8,0.9,-1.3,2,-1.3,3.2c0,1.3,0.5,2.4,1.3,3.3c0.9,0.8,2,1.3,3.3,1.3Z" class="g2_1" />
<path d="M366.9,93.3c1.2,0,2.4,-0.5,3.3,-1.3c0.8,-0.9,1.3,-2,1.3,-3.3c0,-1.2,-0.5,-2.3,-1.3,-3.2c-0.9,-0.9,-2.1,-1.3,-3.3,-1.3c-1.2,0,-2.3,0.4,-3.2,1.3c-0.9,0.9,-1.4,2,-1.4,3.2c0,1.3,0.5,2.4,1.4,3.3c0.9,0.8,2,1.3,3.2,1.3Z" class="g2_1" />
<path d="M376.3,93.3c1.2,0,2.4,-0.5,3.3,-1.3c0.8,-0.9,1.3,-2,1.3,-3.3c0,-1.2,-0.5,-2.3,-1.3,-3.2c-0.9,-0.9,-2.1,-1.3,-3.3,-1.3c-1.2,0,-2.4,0.4,-3.2,1.3c-0.9,0.9,-1.4,2,-1.4,3.2c0,1.3,0.5,2.4,1.4,3.3c0.8,0.8,2,1.3,3.2,1.3Z" class="g2_1" />
<path d="M385.7,93.3c1.2,0,2.4,-0.5,3.2,-1.3c0.9,-0.9,1.4,-2,1.4,-3.3c0,-1.2,-0.5,-2.3,-1.4,-3.2c-0.8,-0.9,-2,-1.3,-3.2,-1.3c-1.2,0,-2.4,0.4,-3.3,1.3c-0.8,0.9,-1.3,2,-1.3,3.2c0,1.3,0.5,2.4,1.3,3.3c0.9,0.8,2.1,1.3,3.3,1.3Z" class="g2_1" />
<path d="M395.1,93.3c1.2,0,2.3,-0.5,3.2,-1.3c0.9,-0.9,1.3,-2,1.3,-3.3c0,-1.2,-0.4,-2.3,-1.3,-3.2c-0.9,-0.9,-2,-1.3,-3.2,-1.3c-1.3,0,-2.4,0.4,-3.3,1.3c-0.8,0.9,-1.3,2,-1.3,3.2c0,1.3,0.5,2.4,1.3,3.3c0.9,0.8,2,1.3,3.3,1.3Z" class="g2_1" />
<path d="M404.4,93.3c1.3,0,2.4,-0.5,3.3,-1.3c0.8,-0.9,1.3,-2,1.3,-3.3c0,-1.2,-0.5,-2.3,-1.3,-3.2c-0.9,-0.9,-2,-1.3,-3.3,-1.3c-1.2,0,-2.3,0.4,-3.2,1.3c-0.9,0.9,-1.3,2,-1.3,3.2c0,1.3,0.4,2.4,1.3,3.3c0.9,0.8,2,1.3,3.2,1.3Z" class="g2_1" />
<path d="M413.8,93.3c1.2,0,2.4,-0.5,3.3,-1.3c0.8,-0.9,1.3,-2,1.3,-3.3c0,-1.2,-0.5,-2.3,-1.3,-3.2c-0.9,-0.9,-2.1,-1.3,-3.3,-1.3c-1.2,0,-2.4,0.4,-3.2,1.3c-0.9,0.9,-1.4,2,-1.4,3.2c0,1.3,0.5,2.4,1.4,3.3c0.8,0.8,2,1.3,3.2,1.3Z" class="g2_1" />
<path d="M423.2,93.3c1.2,0,2.4,-0.5,3.2,-1.3c0.9,-0.9,1.4,-2,1.4,-3.3c0,-1.2,-0.5,-2.3,-1.4,-3.2c-0.8,-0.9,-2,-1.3,-3.2,-1.3c-1.2,0,-2.4,0.4,-3.2,1.3c-0.9,0.9,-1.4,2,-1.4,3.2c0,1.3,0.5,2.4,1.4,3.3c0.8,0.8,2,1.3,3.2,1.3Z" class="g2_1" />
<path d="M432.6,580.7c1.2,0,2.4,-0.5,3.2,-1.3c0.9,-0.9,1.4,-2.1,1.4,-3.3c0,-1.2,-0.5,-2.4,-1.4,-3.2c-0.8,-0.9,-2,-1.4,-3.2,-1.4c-1.2,0,-2.4,0.5,-3.3,1.4c-0.8,0.8,-1.3,2,-1.3,3.2c0,1.2,0.5,2.4,1.3,3.3c0.9,0.8,2.1,1.3,3.3,1.3Z" class="g2_1" />
<path d="M442,580.7c1.2,0,2.3,-0.5,3.2,-1.3c0.9,-0.9,1.3,-2.1,1.3,-3.3c0,-1.2,-0.4,-2.4,-1.3,-3.2c-0.9,-0.9,-2,-1.4,-3.2,-1.4c-1.3,0,-2.4,0.5,-3.3,1.4c-0.8,0.8,-1.3,2,-1.3,3.2c0,1.2,0.5,2.4,1.3,3.3c0.9,0.8,2,1.3,3.3,1.3Z" class="g2_1" />
<path d="M451.3,580.7c1.2,0,2.4,-0.5,3.3,-1.3c0.8,-0.9,1.3,-2.1,1.3,-3.3c0,-1.2,-0.5,-2.4,-1.3,-3.2c-0.9,-0.9,-2.1,-1.4,-3.3,-1.4c-1.2,0,-2.4,0.5,-3.2,1.4c-0.9,0.8,-1.4,2,-1.4,3.2c0,1.2,0.5,2.4,1.4,3.3c0.8,0.8,2,1.3,3.2,1.3Z" class="g2_1" />
<path d="M460.7,580.7c1.2,0,2.4,-0.5,3.2,-1.3c0.9,-0.9,1.4,-2.1,1.4,-3.3c0,-1.2,-0.5,-2.4,-1.4,-3.2c-0.8,-0.9,-2,-1.4,-3.2,-1.4c-1.2,0,-2.4,0.5,-3.2,1.4c-0.9,0.8,-1.4,2,-1.4,3.2c0,1.2,0.5,2.4,1.4,3.3c0.8,0.8,2,1.3,3.2,1.3Z" class="g2_1" />
<path d="M470.1,580.7c1.2,0,2.4,-0.5,3.2,-1.3c0.9,-0.9,1.4,-2.1,1.4,-3.3c0,-1.2,-0.5,-2.4,-1.4,-3.2c-0.8,-0.9,-2,-1.4,-3.2,-1.4c-1.2,0,-2.4,0.5,-3.3,1.4c-0.8,0.8,-1.3,2,-1.3,3.2c0,1.2,0.5,2.4,1.3,3.3c0.9,0.8,2.1,1.3,3.3,1.3Z" class="g2_1" />
<path d="M479.5,580.7c1.2,0,2.3,-0.5,3.2,-1.3c0.9,-0.9,1.3,-2.1,1.3,-3.3c0,-1.2,-0.4,-2.4,-1.3,-3.2c-0.9,-0.9,-2,-1.4,-3.2,-1.4c-1.3,0,-2.4,0.5,-3.3,1.4c-0.8,0.8,-1.3,2,-1.3,3.2c0,1.2,0.5,2.4,1.3,3.3c0.9,0.8,2,1.3,3.3,1.3Z" class="g2_1" />
<path d="M488.8,580.7c1.3,0,2.4,-0.5,3.3,-1.3c0.8,-0.9,1.3,-2.1,1.3,-3.3c0,-1.2,-0.5,-2.4,-1.3,-3.2c-0.9,-0.9,-2,-1.4,-3.3,-1.4c-1.2,0,-2.3,0.5,-3.2,1.4c-0.9,0.8,-1.3,2,-1.3,3.2c0,1.2,0.4,2.4,1.3,3.3c0.9,0.8,2,1.3,3.2,1.3Z" class="g2_1" />
<path d="M498.2,580.7c1.2,0,2.4,-0.5,3.3,-1.3c0.8,-0.9,1.3,-2.1,1.3,-3.3c0,-1.2,-0.5,-2.4,-1.3,-3.2c-0.9,-0.9,-2.1,-1.4,-3.3,-1.4c-1.2,0,-2.4,0.5,-3.2,1.4c-0.9,0.8,-1.4,2,-1.4,3.2c0,1.2,0.5,2.4,1.4,3.3c0.8,0.8,2,1.3,3.2,1.3Z" class="g2_1" />
<path d="M507.6,580.7c1.2,0,2.4,-0.5,3.2,-1.3c0.9,-0.9,1.4,-2.1,1.4,-3.3c0,-1.2,-0.5,-2.4,-1.4,-3.2c-0.8,-0.9,-2,-1.4,-3.2,-1.4c-1.2,0,-2.4,0.5,-3.2,1.4c-0.9,0.8,-1.4,2,-1.4,3.2c0,1.2,0.5,2.4,1.4,3.3c0.8,0.8,2,1.3,3.2,1.3Z" class="g2_1" />
<path d="M517,580.7c1.2,0,2.4,-0.5,3.2,-1.3c0.9,-0.9,1.4,-2.1,1.4,-3.3c0,-1.2,-0.5,-2.4,-1.4,-3.2c-0.8,-0.9,-2,-1.4,-3.2,-1.4c-1.2,0,-2.4,0.5,-3.3,1.4c-0.8,0.8,-1.3,2,-1.3,3.2c0,1.2,0.5,2.4,1.3,3.3c0.9,0.8,2.1,1.3,3.3,1.3Z" class="g2_1" />
<path d="M526.4,93.3c1.2,0,2.3,-0.5,3.2,-1.3c0.9,-0.9,1.3,-2,1.3,-3.3c0,-1.2,-0.4,-2.3,-1.3,-3.2c-0.9,-0.9,-2,-1.3,-3.2,-1.3c-1.3,0,-2.4,0.4,-3.3,1.3c-0.9,0.9,-1.3,2,-1.3,3.2c0,1.3,0.4,2.4,1.3,3.3c0.9,0.8,2,1.3,3.3,1.3Z" class="g2_1" />
<path d="M535.7,93.3c1.2,0,2.4,-0.5,3.3,-1.3c0.8,-0.9,1.3,-2,1.3,-3.3c0,-1.2,-0.5,-2.3,-1.3,-3.2c-0.9,-0.9,-2.1,-1.3,-3.3,-1.3c-1.2,0,-2.4,0.4,-3.2,1.3c-0.9,0.9,-1.4,2,-1.4,3.2c0,1.3,0.5,2.4,1.4,3.3c0.8,0.8,2,1.3,3.2,1.3Z" class="g2_1" />
<path d="M545.1,93.3c1.2,0,2.4,-0.5,3.2,-1.3c0.9,-0.9,1.4,-2,1.4,-3.3c0,-1.2,-0.5,-2.3,-1.4,-3.2c-0.8,-0.9,-2,-1.3,-3.2,-1.3c-1.2,0,-2.4,0.4,-3.2,1.3c-0.9,0.9,-1.4,2,-1.4,3.2c0,1.3,0.5,2.4,1.4,3.3c0.8,0.8,2,1.3,3.2,1.3Z" class="g2_1" />
<path d="M554.5,93.3c1.2,0,2.4,-0.5,3.2,-1.3c0.9,-0.9,1.4,-2,1.4,-3.3c0,-1.2,-0.5,-2.3,-1.4,-3.2c-0.8,-0.9,-2,-1.3,-3.2,-1.3c-1.2,0,-2.4,0.4,-3.3,1.3c-0.8,0.9,-1.3,2,-1.3,3.2c0,1.3,0.5,2.4,1.3,3.3c0.9,0.8,2.1,1.3,3.3,1.3Z" class="g2_1" />
<path d="M563.9,93.3c1.2,0,2.3,-0.5,3.2,-1.3c0.9,-0.9,1.3,-2,1.3,-3.3c0,-1.2,-0.4,-2.3,-1.3,-3.2c-0.9,-0.9,-2,-1.3,-3.2,-1.3c-1.3,0,-2.4,0.4,-3.3,1.3c-0.8,0.9,-1.3,2,-1.3,3.2c0,1.3,0.5,2.4,1.3,3.3c0.9,0.8,2,1.3,3.3,1.3Z" class="g2_1" />
<path d="M573.2,93.3c1.3,0,2.4,-0.5,3.3,-1.3c0.8,-0.9,1.3,-2,1.3,-3.3c0,-1.2,-0.5,-2.3,-1.3,-3.2c-0.9,-0.9,-2,-1.3,-3.3,-1.3c-1.2,0,-2.3,0.4,-3.2,1.3c-0.9,0.9,-1.3,2,-1.3,3.2c0,1.3,0.4,2.4,1.3,3.3c0.9,0.8,2,1.3,3.2,1.3Z" class="g2_1" />
<path d="M582.6,580.7c1.2,0,2.4,-0.5,3.3,-1.3c0.8,-0.9,1.3,-2.1,1.3,-3.3c0,-1.2,-0.5,-2.4,-1.3,-3.2c-0.9,-0.9,-2.1,-1.4,-3.3,-1.4c-1.2,0,-2.4,0.5,-3.2,1.4c-0.9,0.8,-1.4,2,-1.4,3.2c0,1.2,0.5,2.4,1.4,3.3c0.8,0.8,2,1.3,3.2,1.3Z" class="g2_1" />
<path d="M592,93.3c1.2,0,2.4,-0.5,3.2,-1.3c0.9,-0.9,1.4,-2,1.4,-3.3c0,-1.2,-0.5,-2.3,-1.4,-3.2c-0.8,-0.9,-2,-1.3,-3.2,-1.3c-1.2,0,-2.4,0.4,-3.2,1.3c-0.9,0.9,-1.4,2,-1.4,3.2c0,1.3,0.5,2.4,1.4,3.3c0.8,0.8,2,1.3,3.2,1.3Z" class="g2_1" />
<path d="M601.4,93.3c1.2,0,2.4,-0.5,3.2,-1.3c0.9,-0.9,1.4,-2,1.4,-3.3c0,-1.2,-0.5,-2.3,-1.4,-3.2c-0.8,-0.9,-2,-1.3,-3.2,-1.3c-1.2,0,-2.4,0.4,-3.3,1.3c-0.8,0.9,-1.3,2,-1.3,3.2c0,1.3,0.5,2.4,1.3,3.3c0.9,0.8,2.1,1.3,3.3,1.3Z" class="g2_1" />
<path d="M610.7,93.3c1.3,0,2.4,-0.5,3.3,-1.3c0.8,-0.9,1.3,-2,1.3,-3.3c0,-1.2,-0.5,-2.3,-1.3,-3.2c-0.9,-0.9,-2,-1.3,-3.3,-1.3c-1.2,0,-2.3,0.4,-3.2,1.3c-0.9,0.9,-1.3,2,-1.3,3.2c0,1.3,0.4,2.4,1.3,3.3c0.9,0.8,2,1.3,3.2,1.3Z" class="g2_1" />
<path d="M620.1,93.3c1.2,0,2.4,-0.5,3.3,-1.3c0.8,-0.9,1.3,-2,1.3,-3.3c0,-1.2,-0.5,-2.3,-1.3,-3.2c-0.9,-0.9,-2.1,-1.3,-3.3,-1.3c-1.2,0,-2.4,0.4,-3.2,1.3c-0.9,0.9,-1.4,2,-1.4,3.2c0,1.3,0.5,2.4,1.4,3.3c0.8,0.8,2,1.3,3.2,1.3Z" class="g2_1" />
<path d="M629.5,93.3c1.2,0,2.4,-0.5,3.2,-1.3c0.9,-0.9,1.4,-2,1.4,-3.3c0,-1.2,-0.5,-2.3,-1.4,-3.2c-0.8,-0.9,-2,-1.3,-3.2,-1.3c-1.2,0,-2.4,0.4,-3.2,1.3c-0.9,0.9,-1.4,2,-1.4,3.2c0,1.3,0.5,2.4,1.4,3.3c0.8,0.8,2,1.3,3.2,1.3Z" class="g2_1" />
<path d="M638.9,93.3c1.2,0,2.4,-0.5,3.2,-1.3c0.9,-0.9,1.4,-2,1.4,-3.3c0,-1.2,-0.5,-2.3,-1.4,-3.2c-0.8,-0.9,-2,-1.3,-3.2,-1.3c-1.2,0,-2.4,0.4,-3.3,1.3c-0.8,0.9,-1.3,2,-1.3,3.2c0,1.3,0.5,2.4,1.3,3.3c0.9,0.8,2.1,1.3,3.3,1.3Z" class="g2_1" />
<path d="M648.3,93.3c1.2,0,2.3,-0.5,3.2,-1.3c0.9,-0.9,1.3,-2,1.3,-3.3c0,-1.2,-0.4,-2.3,-1.3,-3.2c-0.9,-0.9,-2,-1.3,-3.2,-1.3c-1.3,0,-2.4,0.4,-3.3,1.3c-0.8,0.9,-1.3,2,-1.3,3.2c0,1.3,0.5,2.4,1.3,3.3c0.9,0.8,2,1.3,3.3,1.3Z" class="g2_1" />
<path d="M657.6,93.3c1.3,0,2.4,-0.5,3.3,-1.3c0.8,-0.9,1.3,-2,1.3,-3.3c0,-1.2,-0.5,-2.3,-1.3,-3.2c-0.9,-0.9,-2,-1.3,-3.3,-1.3c-1.2,0,-2.3,0.4,-3.2,1.3c-0.9,0.9,-1.3,2,-1.3,3.2c0,1.3,0.4,2.4,1.3,3.3c0.9,0.8,2,1.3,3.2,1.3Z" class="g2_1" />
<path d="M667,93.3c1.2,0,2.4,-0.5,3.3,-1.3c0.8,-0.9,1.3,-2,1.3,-3.3c0,-1.2,-0.5,-2.3,-1.3,-3.2c-0.9,-0.9,-2.1,-1.3,-3.3,-1.3c-1.2,0,-2.4,0.4,-3.2,1.3c-0.9,0.9,-1.4,2,-1.4,3.2c0,1.3,0.5,2.4,1.4,3.3c0.8,0.8,2,1.3,3.2,1.3Z" class="g2_1" />
<path d="M676.4,93.3c1.2,0,2.4,-0.5,3.2,-1.3c0.9,-0.9,1.4,-2,1.4,-3.3c0,-1.2,-0.5,-2.3,-1.4,-3.2c-0.8,-0.9,-2,-1.3,-3.2,-1.3c-1.2,0,-2.4,0.4,-3.3,1.3c-0.8,0.9,-1.3,2,-1.3,3.2c0,1.3,0.5,2.4,1.3,3.3c0.9,0.8,2.1,1.3,3.3,1.3Z" class="g2_1" />
<path d="M685.8,93.3c1.2,0,2.3,-0.5,3.2,-1.3c0.9,-0.9,1.4,-2,1.4,-3.3c0,-1.2,-0.5,-2.3,-1.4,-3.2c-0.9,-0.9,-2,-1.3,-3.2,-1.3c-1.2,0,-2.4,0.4,-3.3,1.3c-0.8,0.9,-1.3,2,-1.3,3.2c0,1.3,0.5,2.4,1.3,3.3c0.9,0.8,2.1,1.3,3.3,1.3Z" class="g2_1" />
<path d="M695.1,93.3c1.3,0,2.4,-0.5,3.3,-1.3c0.8,-0.9,1.3,-2,1.3,-3.3c0,-1.2,-0.5,-2.3,-1.3,-3.2c-0.9,-0.9,-2,-1.3,-3.3,-1.3c-1.2,0,-2.3,0.4,-3.2,1.3c-0.9,0.9,-1.3,2,-1.3,3.2c0,1.3,0.4,2.4,1.3,3.3c0.9,0.8,2,1.3,3.2,1.3Z" class="g2_1" />
<path d="M704.5,580.7c1.2,0,2.4,-0.5,3.3,-1.3c0.8,-0.9,1.3,-2.1,1.3,-3.3c0,-1.2,-0.5,-2.4,-1.3,-3.2c-0.9,-0.9,-2.1,-1.4,-3.3,-1.4c-1.2,0,-2.4,0.5,-3.2,1.4c-0.9,0.8,-1.4,2,-1.4,3.2c0,1.2,0.5,2.4,1.4,3.3c0.8,0.8,2,1.3,3.2,1.3Z" class="g2_1" />
<path d="M713.9,93.3c1.2,0,2.4,-0.5,3.2,-1.3c0.9,-0.9,1.4,-2,1.4,-3.3c0,-1.2,-0.5,-2.3,-1.4,-3.2c-0.8,-0.9,-2,-1.3,-3.2,-1.3c-1.2,0,-2.4,0.4,-3.2,1.3c-0.9,0.9,-1.4,2,-1.4,3.2c0,1.3,0.5,2.4,1.4,3.3c0.8,0.8,2,1.3,3.2,1.3Z" class="g2_1" />
<path d="M723.3,93.3c1.2,0,2.4,-0.5,3.2,-1.3c0.9,-0.9,1.4,-2,1.4,-3.3c0,-1.2,-0.5,-2.3,-1.4,-3.2c-0.8,-0.9,-2,-1.3,-3.2,-1.3c-1.2,0,-2.4,0.4,-3.3,1.3c-0.8,0.9,-1.3,2,-1.3,3.2c0,1.3,0.5,2.4,1.3,3.3c0.9,0.8,2.1,1.3,3.3,1.3Z" class="g2_1" />
<path d="M732.7,580.7c1.2,0,2.3,-0.5,3.2,-1.3c0.9,-0.9,1.3,-2.1,1.3,-3.3c0,-1.2,-0.4,-2.4,-1.3,-3.2c-0.9,-0.9,-2,-1.4,-3.2,-1.4c-1.3,0,-2.4,0.5,-3.3,1.4c-0.8,0.8,-1.3,2,-1.3,3.2c0,1.2,0.5,2.4,1.3,3.3c0.9,0.8,2,1.3,3.3,1.3Z" class="g2_1" />
<path d="M742,93.3c1.2,0,2.4,-0.5,3.3,-1.3c0.8,-0.9,1.3,-2,1.3,-3.3c0,-1.2,-0.5,-2.3,-1.3,-3.2c-0.9,-0.9,-2.1,-1.3,-3.3,-1.3c-1.2,0,-2.3,0.4,-3.2,1.3c-0.9,0.9,-1.4,2,-1.4,3.2c0,1.3,0.5,2.4,1.4,3.3c0.9,0.8,2,1.3,3.2,1.3Z" class="g2_1" />
<path d="M751.4,580.7c1.2,0,2.4,-0.5,3.3,-1.3c0.8,-0.9,1.3,-2.1,1.3,-3.3c0,-1.2,-0.5,-2.4,-1.3,-3.2c-0.9,-0.9,-2.1,-1.4,-3.3,-1.4c-1.2,0,-2.4,0.5,-3.2,1.4c-0.9,0.8,-1.4,2,-1.4,3.2c0,1.2,0.5,2.4,1.4,3.3c0.8,0.8,2,1.3,3.2,1.3Z" class="g2_1" />
<path d="M760.8,580.7c1.2,0,2.4,-0.5,3.2,-1.3c0.9,-0.9,1.4,-2.1,1.4,-3.3c0,-1.2,-0.5,-2.4,-1.4,-3.2c-0.8,-0.9,-2,-1.4,-3.2,-1.4c-1.2,0,-2.4,0.5,-3.3,1.4c-0.8,0.8,-1.3,2,-1.3,3.2c0,1.2,0.5,2.4,1.3,3.3c0.9,0.8,2.1,1.3,3.3,1.3Z" class="g2_1" />
<path d="M770.2,580.7c1.2,0,2.3,-0.5,3.2,-1.3c0.9,-0.9,1.3,-2.1,1.3,-3.3c0,-1.2,-0.4,-2.4,-1.3,-3.2c-0.9,-0.9,-2,-1.4,-3.2,-1.4c-1.3,0,-2.4,0.5,-3.3,1.4c-0.8,0.8,-1.3,2,-1.3,3.2c0,1.2,0.5,2.4,1.3,3.3c0.9,0.8,2,1.3,3.3,1.3Z" class="g2_1" />
<path d="M779.5,580.7c1.3,0,2.4,-0.5,3.3,-1.3c0.8,-0.9,1.3,-2.1,1.3,-3.3c0,-1.2,-0.5,-2.4,-1.3,-3.2c-0.9,-0.9,-2,-1.4,-3.3,-1.4c-1.2,0,-2.3,0.5,-3.2,1.4c-0.9,0.8,-1.3,2,-1.3,3.2c0,1.2,0.4,2.4,1.3,3.3c0.9,0.8,2,1.3,3.2,1.3Z" class="g2_1" />
<path d="M788.9,580.7c1.2,0,2.4,-0.5,3.3,-1.3c0.8,-0.9,1.3,-2.1,1.3,-3.3c0,-1.2,-0.5,-2.4,-1.3,-3.2c-0.9,-0.9,-2.1,-1.4,-3.3,-1.4c-1.2,0,-2.4,0.5,-3.2,1.4c-0.9,0.8,-1.4,2,-1.4,3.2c0,1.2,0.5,2.4,1.4,3.3c0.8,0.8,2,1.3,3.2,1.3Z" class="g2_1" />
<path d="M798.3,580.7c1.2,0,2.4,-0.5,3.2,-1.3c0.9,-0.9,1.4,-2.1,1.4,-3.3c0,-1.2,-0.5,-2.4,-1.4,-3.2c-0.8,-0.9,-2,-1.4,-3.2,-1.4c-1.2,0,-2.4,0.5,-3.2,1.4c-0.9,0.8,-1.4,2,-1.4,3.2c0,1.2,0.5,2.4,1.4,3.3c0.8,0.8,2,1.3,3.2,1.3Z" class="g2_1" />
<path d="M807.7,580.7c1.2,0,2.4,-0.5,3.2,-1.3c0.9,-0.9,1.4,-2.1,1.4,-3.3c0,-1.2,-0.5,-2.4,-1.4,-3.2c-0.8,-0.9,-2,-1.4,-3.2,-1.4c-1.2,0,-2.4,0.5,-3.3,1.4c-0.8,0.8,-1.3,2,-1.3,3.2c0,1.2,0.5,2.4,1.3,3.3c0.9,0.8,2.1,1.3,3.3,1.3Z" class="g2_1" />
<path d="M817.1,580.7c1.2,0,2.3,-0.5,3.2,-1.3c0.9,-0.9,1.3,-2.1,1.3,-3.3c0,-1.2,-0.4,-2.4,-1.3,-3.2c-0.9,-0.9,-2,-1.4,-3.2,-1.4c-1.3,0,-2.4,0.5,-3.3,1.4c-0.8,0.8,-1.3,2,-1.3,3.2c0,1.2,0.5,2.4,1.3,3.3c0.9,0.8,2,1.3,3.3,1.3Z" class="g2_1" />
<path d="M826.4,580.7c1.2,0,2.4,-0.5,3.3,-1.3c0.8,-0.9,1.3,-2.1,1.3,-3.3c0,-1.2,-0.5,-2.4,-1.3,-3.2c-0.9,-0.9,-2.1,-1.4,-3.3,-1.4c-1.2,0,-2.4,0.5,-3.2,1.4c-0.9,0.8,-1.4,2,-1.4,3.2c0,1.2,0.5,2.4,1.4,3.3c0.8,0.8,2,1.3,3.2,1.3Z" class="g2_1" />
<path d="M835.8,93.3c1.2,0,2.4,-0.5,3.2,-1.3c0.9,-0.9,1.4,-2,1.4,-3.3c0,-1.2,-0.5,-2.3,-1.4,-3.2c-0.8,-0.9,-2,-1.3,-3.2,-1.3c-1.2,0,-2.4,0.4,-3.2,1.3c-0.9,0.9,-1.4,2,-1.4,3.2c0,1.3,0.5,2.4,1.4,3.3c0.8,0.8,2,1.3,3.2,1.3Z" class="g2_1" />
<path d="M845.2,93.3c1.2,0,2.4,-0.5,3.2,-1.3c0.9,-0.9,1.4,-2,1.4,-3.3c0,-1.2,-0.5,-2.3,-1.4,-3.2c-0.8,-0.9,-2,-1.3,-3.2,-1.3c-1.2,0,-2.4,0.4,-3.3,1.3c-0.8,0.9,-1.3,2,-1.3,3.2c0,1.3,0.5,2.4,1.3,3.3c0.9,0.8,2.1,1.3,3.3,1.3Z" class="g2_1" />
<path d="M854.6,580.7c1.2,0,2.3,-0.5,3.2,-1.3c0.9,-0.9,1.3,-2.1,1.3,-3.3c0,-1.2,-0.4,-2.4,-1.3,-3.2c-0.9,-0.9,-2,-1.4,-3.2,-1.4c-1.3,0,-2.4,0.5,-3.3,1.4c-0.8,0.8,-1.3,2,-1.3,3.2c0,1.2,0.5,2.4,1.3,3.3c0.9,0.8,2,1.3,3.3,1.3Z" class="g2_1" />
<path d="M863.9,580.7c1.3,0,2.4,-0.5,3.3,-1.3c0.8,-0.9,1.3,-2.1,1.3,-3.3c0,-1.2,-0.5,-2.4,-1.3,-3.2c-0.9,-0.9,-2,-1.4,-3.3,-1.4c-1.2,0,-2.3,0.5,-3.2,1.4c-0.9,0.8,-1.3,2,-1.3,3.2c0,1.2,0.4,2.4,1.3,3.3c0.9,0.8,2,1.3,3.2,1.3Z" class="g2_1" />
<path d="M873.3,93.3c1.2,0,2.4,-0.5,3.3,-1.3c0.8,-0.9,1.3,-2,1.3,-3.3c0,-1.2,-0.5,-2.3,-1.3,-3.2c-0.9,-0.9,-2.1,-1.3,-3.3,-1.3c-1.2,0,-2.4,0.4,-3.2,1.3c-0.9,0.9,-1.4,2,-1.4,3.2c0,1.3,0.5,2.4,1.4,3.3c0.8,0.8,2,1.3,3.2,1.3Z" class="g2_1" />
<path d="M882.7,580.7c1.2,0,2.4,-0.5,3.2,-1.3c0.9,-0.9,1.4,-2.1,1.4,-3.3c0,-1.2,-0.5,-2.4,-1.4,-3.2c-0.8,-0.9,-2,-1.4,-3.2,-1.4c-1.2,0,-2.4,0.5,-3.2,1.4c-0.9,0.8,-1.4,2,-1.4,3.2c0,1.2,0.5,2.4,1.4,3.3c0.8,0.8,2,1.3,3.2,1.3Z" class="g2_1" />
<path d="M892.1,580.7c1.2,0,2.4,-0.5,3.2,-1.3c0.9,-0.9,1.4,-2.1,1.4,-3.3c0,-1.2,-0.5,-2.4,-1.4,-3.2c-0.8,-0.9,-2,-1.4,-3.2,-1.4c-1.2,0,-2.4,0.5,-3.3,1.4c-0.8,0.8,-1.3,2,-1.3,3.2c0,1.2,0.5,2.4,1.3,3.3c0.9,0.8,2.1,1.3,3.3,1.3Z" class="g2_1" />
<path d="M901.5,580.7c1.2,0,2.3,-0.5,3.2,-1.3c0.9,-0.9,1.3,-2.1,1.3,-3.3c0,-1.2,-0.4,-2.4,-1.3,-3.2c-0.9,-0.9,-2,-1.4,-3.2,-1.4c-1.3,0,-2.4,0.5,-3.3,1.4c-0.9,0.8,-1.3,2,-1.3,3.2c0,1.2,0.4,2.4,1.3,3.3c0.9,0.8,2,1.3,3.3,1.3Z" class="g2_1" />
<path d="M910.8,580.7c1.2,0,2.4,-0.5,3.3,-1.3c0.8,-0.9,1.3,-2.1,1.3,-3.3c0,-1.2,-0.5,-2.4,-1.3,-3.2c-0.9,-0.9,-2.1,-1.4,-3.3,-1.4c-1.2,0,-2.4,0.5,-3.2,1.4c-0.9,0.8,-1.4,2,-1.4,3.2c0,1.2,0.5,2.4,1.4,3.3c0.8,0.8,2,1.3,3.2,1.3Z" class="g2_1" />
<path d="M920.2,580.7c1.2,0,2.4,-0.5,3.2,-1.3c0.9,-0.9,1.4,-2.1,1.4,-3.3c0,-1.2,-0.5,-2.4,-1.4,-3.2c-0.8,-0.9,-2,-1.4,-3.2,-1.4c-1.2,0,-2.4,0.5,-3.2,1.4c-0.9,0.8,-1.4,2,-1.4,3.2c0,1.2,0.5,2.4,1.4,3.3c0.8,0.8,2,1.3,3.2,1.3Z" class="g2_1" />
<path d="M929.6,93.3c1.2,0,2.4,-0.5,3.2,-1.3c0.9,-0.9,1.4,-2,1.4,-3.3c0,-1.2,-0.5,-2.3,-1.4,-3.2c-0.8,-0.9,-2,-1.3,-3.2,-1.3c-1.2,0,-2.4,0.4,-3.3,1.3c-0.8,0.9,-1.3,2,-1.3,3.2c0,1.3,0.5,2.4,1.3,3.3c0.9,0.8,2.1,1.3,3.3,1.3Z" class="g2_1" />
<path d="M939,93.3c1.2,0,2.3,-0.5,3.2,-1.3c0.9,-0.9,1.3,-2,1.3,-3.3c0,-1.2,-0.4,-2.3,-1.3,-3.2c-0.9,-0.9,-2,-1.3,-3.2,-1.3c-1.3,0,-2.4,0.4,-3.3,1.3c-0.8,0.9,-1.3,2,-1.3,3.2c0,1.3,0.5,2.4,1.3,3.3c0.9,0.8,2,1.3,3.3,1.3Z" class="g2_1" />
<path d="M948.3,580.7c1.3,0,2.4,-0.5,3.3,-1.3c0.8,-0.9,1.3,-2.1,1.3,-3.3c0,-1.2,-0.5,-2.4,-1.3,-3.2c-0.9,-0.9,-2,-1.4,-3.3,-1.4c-1.2,0,-2.3,0.5,-3.2,1.4c-0.9,0.8,-1.3,2,-1.3,3.2c0,1.2,0.4,2.4,1.3,3.3c0.9,0.8,2,1.3,3.2,1.3Z" class="g2_1" />
<path d="M957.7,580.7c1.2,0,2.4,-0.5,3.3,-1.3c0.8,-0.9,1.3,-2.1,1.3,-3.3c0,-1.2,-0.5,-2.4,-1.3,-3.2c-0.9,-0.9,-2.1,-1.4,-3.3,-1.4c-1.2,0,-2.4,0.5,-3.2,1.4c-0.9,0.8,-1.4,2,-1.4,3.2c0,1.2,0.5,2.4,1.4,3.3c0.8,0.8,2,1.3,3.2,1.3Z" class="g2_1" />
<path d="M967.1,580.7c1.2,0,2.4,-0.5,3.2,-1.3c0.9,-0.9,1.4,-2.1,1.4,-3.3c0,-1.2,-0.5,-2.4,-1.4,-3.2c-0.8,-0.9,-2,-1.4,-3.2,-1.4c-1.2,0,-2.4,0.5,-3.2,1.4c-0.9,0.8,-1.4,2,-1.4,3.2c0,1.2,0.5,2.4,1.4,3.3c0.8,0.8,2,1.3,3.2,1.3Z" class="g2_1" />
<path d="M976.5,93.3c1.2,0,2.4,-0.5,3.2,-1.3c0.9,-0.9,1.4,-2,1.4,-3.3c0,-1.2,-0.5,-2.3,-1.4,-3.2c-0.8,-0.9,-2,-1.3,-3.2,-1.3c-1.2,0,-2.4,0.4,-3.3,1.3c-0.8,0.9,-1.3,2,-1.3,3.2c0,1.3,0.5,2.4,1.3,3.3c0.9,0.8,2.1,1.3,3.3,1.3Z" class="g2_1" />
<path d="M985.8,93.3c1.3,0,2.4,-0.5,3.3,-1.3c0.8,-0.9,1.3,-2,1.3,-3.3c0,-1.2,-0.5,-2.3,-1.3,-3.2c-0.9,-0.9,-2,-1.3,-3.3,-1.3c-1.2,0,-2.3,0.4,-3.2,1.3c-0.9,0.9,-1.3,2,-1.3,3.2c0,1.3,0.4,2.4,1.3,3.3c0.9,0.8,2,1.3,3.2,1.3Z" class="g2_1" />
<path d="M995.2,580.7c1.2,0,2.4,-0.5,3.3,-1.3c0.8,-0.9,1.3,-2.1,1.3,-3.3c0,-1.2,-0.5,-2.4,-1.3,-3.2c-0.9,-0.9,-2.1,-1.4,-3.3,-1.4c-1.2,0,-2.4,0.5,-3.2,1.4c-0.9,0.8,-1.4,2,-1.4,3.2c0,1.2,0.5,2.4,1.4,3.3c0.8,0.8,2,1.3,3.2,1.3Z" class="g2_1" />
<path d="M1004.6,580.7c1.2,0,2.4,-0.5,3.2,-1.3c0.9,-0.9,1.4,-2.1,1.4,-3.3c0,-1.2,-0.5,-2.4,-1.4,-3.2c-0.8,-0.9,-2,-1.4,-3.2,-1.4c-1.2,0,-2.4,0.5,-3.2,1.4c-0.9,0.8,-1.4,2,-1.4,3.2c0,1.2,0.5,2.4,1.4,3.3c0.8,0.8,2,1.3,3.2,1.3Z" class="g2_1" />
<path d="M1014,580.7c1.2,0,2.4,-0.5,3.2,-1.3c0.9,-0.9,1.4,-2.1,1.4,-3.3c0,-1.2,-0.5,-2.4,-1.4,-3.2c-0.8,-0.9,-2,-1.4,-3.2,-1.4c-1.2,0,-2.4,0.5,-3.3,1.4c-0.8,0.8,-1.3,2,-1.3,3.2c0,1.2,0.5,2.4,1.3,3.3c0.9,0.8,2.1,1.3,3.3,1.3Z" class="g2_1" />
<path d="M1023.4,580.7c1.2,0,2.3,-0.5,3.2,-1.3c0.9,-0.9,1.3,-2.1,1.3,-3.3c0,-1.2,-0.4,-2.4,-1.3,-3.2c-0.9,-0.9,-2,-1.4,-3.2,-1.4c-1.3,0,-2.4,0.5,-3.3,1.4c-0.8,0.8,-1.3,2,-1.3,3.2c0,1.2,0.5,2.4,1.3,3.3c0.9,0.8,2,1.3,3.3,1.3Z" class="g2_1" />
<path d="M1032.7,580.7c1.3,0,2.4,-0.5,3.3,-1.3c0.8,-0.9,1.3,-2.1,1.3,-3.3c0,-1.2,-0.5,-2.4,-1.3,-3.2c-0.9,-0.9,-2,-1.4,-3.3,-1.4c-1.2,0,-2.3,0.5,-3.2,1.4c-0.9,0.8,-1.3,2,-1.3,3.2c0,1.2,0.4,2.4,1.3,3.3c0.9,0.8,2,1.3,3.2,1.3Z" class="g2_1" />
<path d="M1042.1,580.7c1.2,0,2.4,-0.5,3.3,-1.3c0.8,-0.9,1.3,-2.1,1.3,-3.3c0,-1.2,-0.5,-2.4,-1.3,-3.2c-0.9,-0.9,-2.1,-1.4,-3.3,-1.4c-1.2,0,-2.4,0.5,-3.2,1.4c-0.9,0.8,-1.4,2,-1.4,3.2c0,1.2,0.5,2.4,1.4,3.3c0.8,0.8,2,1.3,3.2,1.3Z" class="g2_1" />
<path d="M1051.5,93.3c1.2,0,2.4,-0.5,3.2,-1.3c0.9,-0.9,1.4,-2,1.4,-3.3c0,-1.2,-0.5,-2.3,-1.4,-3.2c-0.8,-0.9,-2,-1.3,-3.2,-1.3c-1.2,0,-2.4,0.4,-3.3,1.3c-0.8,0.9,-1.3,2,-1.3,3.2c0,1.3,0.5,2.4,1.3,3.3c0.9,0.8,2.1,1.3,3.3,1.3Z" class="g2_1" />
<path d="M1060.9,93.3c1.2,0,2.3,-0.5,3.2,-1.3c0.9,-0.9,1.4,-2,1.4,-3.3c0,-1.2,-0.5,-2.3,-1.4,-3.2c-0.9,-0.9,-2,-1.3,-3.2,-1.3c-1.2,0,-2.4,0.4,-3.3,1.3c-0.8,0.9,-1.3,2,-1.3,3.2c0,1.3,0.5,2.4,1.3,3.3c0.9,0.8,2.1,1.3,3.3,1.3Z" class="g2_1" />
<path d="M1070.2,93.3c1.3,0,2.4,-0.5,3.3,-1.3c0.8,-0.9,1.3,-2,1.3,-3.3c0,-1.2,-0.5,-2.3,-1.3,-3.2c-0.9,-0.9,-2,-1.3,-3.3,-1.3c-1.2,0,-2.3,0.4,-3.2,1.3c-0.9,0.9,-1.3,2,-1.3,3.2c0,1.3,0.4,2.4,1.3,3.3c0.9,0.8,2,1.3,3.2,1.3Z" class="g2_1" />
<path d="M1079.6,93.3c1.2,0,2.4,-0.5,3.3,-1.3c0.8,-0.9,1.3,-2,1.3,-3.3c0,-1.2,-0.5,-2.3,-1.3,-3.2c-0.9,-0.9,-2.1,-1.3,-3.3,-1.3c-1.2,0,-2.4,0.4,-3.2,1.3c-0.9,0.9,-1.4,2,-1.4,3.2c0,1.3,0.5,2.4,1.4,3.3c0.8,0.8,2,1.3,3.2,1.3Z" class="g2_1" />
<path d="M151.3,128.9l9.3,-4.4l9.4,-7.9l9.4,7.9l9.4,-14.3l9.3,-4.3l9.4,-6.8l9.4,29.8l9.4,65l9.3,61.5l9.4,67.5l9.4,52.8l9.4,12.6l9.4,-26.5l9.3,-40.1l9.4,-40.9l9.4,-7.9l9.4,17.8l9.3,8.8L329.4,284l9.4,-36.9l9.4,-39.3l9.4,16.3l9.3,34.9l9.4,49.6l9.4,10.7L395.1,303l9.3,-39.6l9.4,-38.1l9.4,-42.9l9.4,-11.1L442,152.7l9.3,-13.9l9.4,25.4l9.4,50l9.4,62.7l9.3,59.5l9.4,46.4l9.4,41.3l9.4,34.5l9.3,22.2l9.4,21.8l9.4,11.5l9.4,-20.2l9.4,-55.2l9.3,-73.8l9.4,-65.4L592,250.7l9.4,-40.5l9.3,-10.3l9.4,15.1l9.4,-14.3L638.9,184l9.4,-21.4l9.3,-8.7L667,138.4l9.4,-15.9l9.4,0l9.3,-8.3l9.4,-1.6l9.4,-13.1l9.4,7.6l9.4,28.1l9.3,29l9.4,9.9l9.4,14.3l9.4,24.2l9.3,34.1l9.4,44.4l9.4,57.6l9.4,49.6l9.4,34.9l9.3,22.2l9.4,27l9.4,20.2l9.4,4l9.3,-23l9.4,-54.8l9.4,-24.2l9.4,-11.5l9.3,-4.4l9.4,-11.1l9.4,21.1l9.4,38.4l9.4,31l9.3,14.3l9.4,-15.1l9.4,-46.8l9.4,-26.6l9.3,13.9l9.4,5.9l9.4,-15l9.4,-46.1l9.4,-13.8l9.3,16.6l9.4,27.4l9.4,29.7l9.4,29.4l9.3,25l9.4,-17.1" class="g3_1" />
<path d="M151,66l937,0" class="g4_1" />
<path d="M1088,594l0,-528" class="g4_1" />
<path d="M151,594l937,0" class="g4_1" />
<path d="M151,594L151,66" class="g4_1" />
<path d="M151.5,594.5l0,-7" class="g5_1" />
<path d="M151.5,66.5l0,6" class="g5_1" />
<text 
x="145" 
y="614" 
dx="0" 
class="s1_1"
>0</text>

<path d="M338.5,594.5l0,-7" class="g5_1" />
<path d="M338.5,66.5l0,6" class="g5_1" />
<text 
x="327" 
y="614" 
dx="0,0" 
class="s1_1"
>20</text>

<path d="M526.5,594.5l0,-7" class="g5_1" />
<path d="M526.5,66.5l0,6" class="g5_1" />
<text 
x="514" 
y="614" 
dx="0,0" 
class="s1_1"
>40</text>

<path d="M713.5,594.5l0,-7" class="g5_1" />
<path d="M713.5,66.5l0,6" class="g5_1" />
<text 
x="702" 
y="614" 
dx="0,0" 
class="s1_1"
>60</text>

<path d="M901.5,594.5l0,-7" class="g5_1" />
<path d="M901.5,66.5l0,6" class="g5_1" />
<text 
x="889" 
y="614" 
dx="0,0" 
class="s1_1"
>80</text>

<path d="M1088.5,594.5l0,-7" class="g5_1" />
<path d="M1088.5,66.5l0,6" class="g5_1" />
<text 
x="1071" 
y="614" 
dx="0,0,0" 
class="s1_1"
>100</text>

<path d="M151.5,561.5l6,0" class="g5_1" />
<path d="M1088.5,561.5l-6,0" class="g5_1" />
<text 
x="115" 
y="566" 
dx="0,0,0" 
class="s1_1"
>1.5</text>

<path d="M102.5,561.5l12,0" class="g6_1" />
<path d="M151.5,480.5l6,0" class="g5_1" />
<path d="M1088.5,480.5l-6,0" class="g5_1" />
<text 
x="115" 
y="485" 
dx="0,0,0" 
class="s1_1"
>1.0</text>

<path d="M102.5,480.5l12,0" class="g6_1" />
<path d="M151.5,399.5l6,0" class="g5_1" />
<path d="M1088.5,399.5l-6,0" class="g5_1" />
<text 
x="115" 
y="404" 
dx="0,0,0" 
class="s1_1"
>0.5</text>

<path d="M102.5,399.5l12,0" class="g6_1" />
<path d="M151.5,317.5l6,0" class="g5_1" />
<path d="M1088.5,317.5l-6,0" class="g5_1" />
<text 
x="115" 
y="322" 
dx="0,0,0" 
class="s1_1"
>0.0</text>

<path d="M151.5,236.5l6,0" class="g5_1" />
<path d="M1088.5,236.5l-6,0" class="g5_1" />
<text 
x="115" 
y="241" 
dx="0,0,0" 
class="s1_1"
>0.5</text>

<path d="M151.5,155.5l6,0" class="g5_1" />
<path d="M1088.5,155.5l-6,0" class="g5_1" />
<text 
x="115" 
y="160" 
dx="0,0,0" 
class="s1_1"
>1.0</text>

<path d="M151.5,74.5l6,0" class="g5_1" />
<path d="M1088.5,74.5l-6,0" class="g5_1" />
<text 
x="115" 
y="79" 
dx="0,0,0" 
class="s1_1"
>1.5</text>


<title>dryer_0 Page1</title>
</svg>
